<?xml version="1.0"?>
<svg width="1438.1" height="1542.7" xmlns="http://www.w3.org/2000/svg" xmlns:svg="http://www.w3.org/2000/svg" version="1.1">
 <title id="title4605">Sun Icon</title>

 <metadata>image/svg+xmlOpenclipartSun Icon2013-07-15T20:06:58A sun icon stylized.https://openclipart.org/detail/180897/sun-icon-by-uroesch-180897uroeschaiflowersiconpatternremixsun</metadata>
 <g class="layer">
  <title>Layer 1</title>
  <g id="layer2" transform="translate(-115.36 -75.257)">
   <g fill="#d40000" id="g5163">
    <path d="m669.59,1022c321.77,268.4 629.51,-213.86 188.09,-316.02c611.22,29.48 148.02,741.22 -188.09,316.02z" id="path3811"/>
    <path d="m1080.9,673.08c-344.3,-178.11 -566.76,304.11 -107.8,351.12c-621.23,63.3 -291,-681.1 107.8,-351.12z" id="path4583"/>
    <path d="m319.23,357.54c153.15,-15.93 171.38,109.49 235,162.86c63.62,53.37 51.95,34.03 122.88,67.71c-34.48,30.17 -75.02,64.1 -91.32,105.63c-213.42,-59.06 -102.93,-193.25 -266.56,-336.2z" id="path4585"/>
    <path d="m540.86,148.96c173.28,23.03 159.52,193.75 254.94,353.51c0,0 -32.61,26.13 -51.23,23.55c-59.42,-8.22 -113.46,-61.82 -136.96,-116.73c-6.82,-15.93 7.3,-156.03 -66.76,-260.33l0.01,0z" id="path4587"/>
    <path d="m979.31,75.26c57.86,130.07 32.7,250.64 -42.01,423.82c-9.71,22.52 -65.08,3.76 -71.47,-17.56c-62.69,-209.06 -50.04,-285.37 113.48,-406.27l0,0.01z" id="path4589"/>
    <path d="m1292.7,203.93s-186.2,18.19 -214.57,90.44c-34.61,88.13 -66.12,218.93 -55.86,239.4c19.43,38.75 86.08,80.88 126.79,74.48c54.69,-8.6 92.41,-89.03 83.35,-143.64c-14.29,-86.08 38.49,-262.13 60.29,-260.68z" id="path4591"/>
    <path d="m1206.3,718.52c67.44,-52.3 118.19,-187.79 195.61,-178.06c38.12,43.07 71.23,91.56 147.96,92.79c31.15,35.39 -144.55,224.18 -288.4,233.23c-26.81,1.69 -50.6,-149.33 -55.17,-147.96z" id="path4593"/>
    <path d="m1241.3,950.49c99.76,-20.14 171.38,-2.46 189.74,8.87c-3.47,13.59 3.91,189.85 7.98,196.84c-19.79,55.93 -79.77,72.89 -101.96,65.61c-109.55,-35.92 -135.66,-123.24 -135.66,-123.24c-7.98,-48.95 29.02,-94.03 39.9,-148.07l0,-0.01z" id="path4595"/>
    <path d="m1099.7,1206.3c0.88,0.87 -101.12,29.45 -127.9,63.95c-25.98,42.85 -23.61,105.4 -40.75,157.37c-4.46,37.26 86.95,72.08 104.08,68.96c21.52,-16.14 109.42,-92.83 117.87,-157.99c6.11,-47.14 -53.29,-132.29 -53.29,-132.29l-0.01,0z" id="path4597"/>
    <path d="m585.28,1618c95.53,-132.03 31.77,-232.95 115.18,-408.59l118.81,65.61c-116.16,158.01 -8.48,321.83 -233.99,342.98z" id="path4599"/>
    <path d="m257.05,1250.2c83.42,-217.94 180.94,-283.28 287.15,-278.37c25.62,73.61 55.9,152.04 97.81,176.8c-135.49,-27.51 -262.83,-1.23 -384.95,101.57l-0.01,0z" id="path4601"/>
    <path d="m115.36,811.31c2.56,-1.28 86.3,-162.4 151.72,-176.8c104,-22.89 121.63,66.46 278.37,120.38l-8.78,76.49c-250.81,34.4 -203.07,-76.52 -421.31,-20.07z" id="path4603"/>
   </g>
  </g>
 </g>
</svg>